<?xml version="1.0"?>
<svg version="1.1" xmlns="http://www.w3.org/2000/svg" width="255" height="110" style=""><path fill="#" d="M16.86474609375,49.160400390625q-0.0654296875-0.866943359375,0.147216796875-1.6357421875t0.801513671875-1.27587890625t1.99560546875-0.507080078125q0.3271484375,0,0.801513671875,0.0654296875t0.94873046875,0.212646484375t0.768798828125,0.408935546875t0.29443359375,0.7197265625q0,1.21044921875,0.081787109375,3.189697265625t0.212646484375,4.1220703125t0.245361328125,4.1875t0.212646484375,3.320556640625q2.5517578125-0.130859375,5.13623046875-0.130859375t5.103515625-0.130859375l4.5146484375-0.130859375l0-3.23876953125q0-5.4306640625-0.212646484375-10.877685546875t-0.736083984375-10.877685546875q0-0.392578125,0.3271484375-0.637939453125t0.768798828125-0.376220703125t0.916015625-0.16357421875t0.736083984375-0.03271484375q0.75244140625,0,1.619384765625,0.22900390625t0.997802734375,0.9814453125l0.1962890625,1.40673828125q0.81787109375,5.888671875,1.1123046875,11.646484375t0.42529296875,11.515625q0.392578125,0.0654296875,0.834228515625,0.212646484375t0.899658203125,0.278076171875q0.3271484375,0.130859375,0.932373046875,0.392578125t0.605224609375,0.81787109375q0,0.5234375-0.4580078125,0.81787109375t-1.030517578125,0.441650390625t-1.1123046875,0.179931640625t-0.670654296875,0.03271484375q0.0654296875,2.4208984375,0.0654296875,4.825439453125l0,4.825439453125l0,10.56689453125l0,5.888671875q0,0.392578125-0.376220703125,0.703369140625t-0.899658203125,0.507080078125t-1.095947265625,0.26171875t-1.030517578125,0.0654296875t-1.07958984375-0.0654296875t-1.1123046875-0.26171875t-0.866943359375-0.49072265625t-0.376220703125-0.7197265625l0-1.40673828125q0.130859375-6.2158203125,0.29443359375-12.317138671875t0.3271484375-12.251708984375q-3.56591796875,0.130859375-7.246337890625,0.16357421875t-7.311767578125,0.16357421875q0.392578125,4.61279296875,0.899658203125,9.209228515625t1.063232421875,9.209228515625q0,0.392578125-0.376220703125,0.703369140625t-0.88330078125,0.507080078125t-1.07958984375,0.26171875t-1.030517578125,0.0654296875q-0.94873046875,0-2.077392578125-0.3271484375t-1.259521484375-1.21044921875q-0.392578125-3.4677734375-0.736083984375-7.6552734375t-0.605224609375-8.554931640625t-0.408935546875-8.554931640625t-0.147216796875-7.58984375q0-0.81787109375-0.0654296875-1.684814453125z M54.247016601562,77.638671875q0-2.2900390625,0.507080078125-5.39794921875t1.717529296875-5.888671875t3.189697265625-4.727294921875t4.989013671875-1.946533203125q2.8134765625,0,4.22021484375,1.619384765625t1.40673828125,4.367431640625q0,1.79931640625-0.670654296875,3.942138671875t-1.913818359375,4.056640625t-2.9443359375,3.189697265625t-3.794921875,1.27587890625l-0.8505859375-0.0654296875q0,0.88330078125,0.26171875,2.371826171875t0.768798828125,2.960693359375t1.30859375,2.58447265625t1.946533203125,1.1123046875q1.66845703125,0,3.2060546875-1.34130859375t2.91162109375-2.97705078125t2.5517578125-2.97705078125t2.1591796875-1.34130859375q0.5234375,0,1.07958984375,0.16357421875t0.62158203125,0.916015625q0,0.4580078125-0.245361328125,0.75244140625t-0.441650390625,0.654296875q-1.01416015625,1.73388671875-2.208251953125,3.30419921875t-2.698974609375,2.84619140625t-3.287841796875,2.011962890625t-3.942138671875,0.736083984375q-2.8134765625,0-4.67822265625-0.997802734375t-3.009765625-2.6826171875t-1.652099609375-3.89306640625t-0.507080078125-4.629150390625z M60.102973632812,75.15234375l0.916015625,0.81787109375q0.654296875,0.5888671875,1.30859375,0.26171875t1.177734375-1.194091796875t0.965087890625-2.142822265625t0.78515625-2.6171875t0.507080078125-2.6171875t0.16357421875-2.12646484375l0-1.1123046875t-0.09814453125-1.177734375t-0.343505859375-0.932373046875t-0.768798828125-0.474365234375q-0.16357421875-0.03271484375-0.29443359375-0.03271484375q-1.1123046875,0-1.8974609375,1.40673828125q-0.8505859375,1.5703125-1.3740234375,3.811279296875t-0.75244140625,4.596435546875t-0.29443359375,3.533203125z M81.585830078125,87.9111328125q0-0.94873046875,0.081787109375-1.99560546875t0.147216796875-1.962890625l0.1962890625-4.9072265625q0.3271484375-5.888671875,0.801513671875-11.5810546875t0.801513671875-11.515625q0.1962890625-3.2060546875,0.29443359375-6.297607421875t0.29443359375-6.297607421875q-0.130859375-0.26171875-0.130859375-0.35986328125q0-0.4580078125,0.343505859375-0.7197265625t0.801513671875-0.441650390625t0.965087890625-0.245361328125t0.768798828125-0.0654296875l0.75244140625,0q1.01416015625,0.130859375,1.47216796875,0.637939453125t0.5888671875,1.21044921875t0.0654296875,1.5048828125t-0.0654296875,1.488525390625q0,4.74365234375-0.22900390625,9.667236328125t-0.5234375,9.8798828125t-0.539794921875,9.91259765625t-0.245361328125,9.798095703125l0,2.2900390625q0,1.53759765625-0.866943359375,2.0283203125t-2.404541015625,0.49072265625q-1.34130859375,0-2.35546875-0.5888671875t-1.01416015625-1.93017578125z M96.591147460937,87.9111328125q0-0.94873046875,0.081787109375-1.99560546875t0.147216796875-1.962890625l0.1962890625-4.9072265625q0.3271484375-5.888671875,0.801513671875-11.5810546875t0.801513671875-11.515625q0.1962890625-3.2060546875,0.29443359375-6.297607421875t0.29443359375-6.297607421875q-0.130859375-0.26171875-0.130859375-0.35986328125q0-0.4580078125,0.343505859375-0.7197265625t0.801513671875-0.441650390625t0.965087890625-0.245361328125t0.768798828125-0.0654296875l0.75244140625,0q1.01416015625,0.130859375,1.47216796875,0.637939453125t0.5888671875,1.21044921875t0.0654296875,1.5048828125t-0.0654296875,1.488525390625q0,4.74365234375-0.22900390625,9.667236328125t-0.5234375,9.8798828125t-0.539794921875,9.91259765625t-0.245361328125,9.798095703125l0,2.2900390625q0,1.53759765625-0.866943359375,2.0283203125t-2.404541015625,0.49072265625q-1.34130859375,0-2.35546875-0.5888671875t-1.01416015625-1.93017578125z M110.94216796875,76.9189453125q0-1.86474609375,0.474365234375-3.843994140625t1.5048828125-3.56591796875t2.600830078125-2.58447265625t3.794921875-0.997802734375q1.66845703125,0,3.516845703125,0.572509765625t3.385986328125,1.6357421875t2.502685546875,2.600830078125t0.965087890625,3.43505859375q0,2.2900390625-0.834228515625,4.35107421875t-2.339111328125,3.680419921875t-3.516845703125,2.5517578125t-4.367431640625,0.932373046875q-1.93017578125,0-3.36962890625-0.703369140625t-2.404541015625-1.881103515625t-1.439453125-2.78076171875t-0.474365234375-3.40234375z M115.75125,76.853515625q0,0.5888671875,0.179931640625,1.73388671875t0.539794921875,2.240966796875t0.932373046875,1.8974609375t1.390380859375,0.736083984375q1.73388671875-0.1962890625,2.862548828125-1.128662109375t1.83203125-2.273681640625t0.9814453125-2.91162109375t0.278076171875-2.97705078125q0-1.79931640625-0.703369140625-3.009765625t-2.306396484375-1.962890625q0,0.0654296875,0.0654296875,0.0654296875t0.0654296875-0.0654296875l-0.81787109375-0.1962890625q-0.3271484375-0.130859375-0.801513671875-0.29443359375t-0.932373046875-0.7197265625q-1.27587890625,0.4580078125-1.979248046875,1.177734375t-1.063232421875,1.750244140625t-0.441650390625,2.469970703125t-0.081787109375,3.4677734375z M148.55900390625,42.322998046875q-0.081787109375-0.997802734375,0.130859375-1.73388671875t0.8505859375-1.21044921875t2.044677734375-0.474365234375l5.26708984375,0q1.07958984375,0,2.829833984375,0.114501953125t3.76220703125,0.343505859375t4.007568359375,0.703369140625t3.647705078125,1.177734375t2.6826171875,1.73388671875t1.030517578125,2.437255859375q0,1.99560546875-1.161376953125,3.745849609375t-2.91162109375,3.156982421875t-3.69677734375,2.502685546875t-3.484130859375,1.979248046875q6.0849609375,1.34130859375,9.52001953125,5.5615234375t3.43505859375,10.5341796875q0,3.3369140625-1.27587890625,6.592041015625t-3.484130859375,5.872314453125t-5.234375,4.22021484375t-6.493896484375,1.60302734375q-0.4580078125,0-1.030517578125-0.09814453125t-1.046875-0.310791015625t-0.81787109375-0.605224609375t-0.343505859375-1.01416015625q0-2.87890625,3.10791015625-2.87890625q0.5234375,0,1.226806640625,0.147216796875t1.095947265625,0.605224609375q1.79931640625-0.75244140625,3.287841796875-2.38818359375t2.51904296875-3.647705078125t1.60302734375-4.22021484375t0.572509765625-4.007568359375q0-2.1591796875-0.637939453125-4.400146484375t-1.848388671875-4.15478515625t-2.97705078125-3.222412109375t-4.056640625-1.6357421875q-0.5888671875-0.0654296875-1.292236328125-0.09814453125l-1.40673828125-0.0654296875t-1.3740234375-0.1962890625t-1.161376953125-0.5234375q0.26171875,5.4306640625,0.670654296875,10.82861328125t1.095947265625,10.82861328125q0.26171875,0.26171875,0.35986328125,0.768798828125t0.16357421875,1.07958984375t0.0654296875,1.095947265625l0,0.88330078125q0,0.5888671875-0.392578125,0.965087890625t-0.932373046875,0.605224609375t-1.14501953125,0.29443359375t-1.063232421875,0.0654296875q-1.47216796875,0-2.25732421875-0.392578125t-1.1123046875-1.14501953125t-0.42529296875-1.717529296875t-0.16357421875-2.110107421875q-0.88330078125-9.12744140625-1.27587890625-18.05859375t-0.392578125-18.05859375q0-1.07958984375-0.081787109375-2.077392578125z M154.59489257813,40.9326171875q0,4.02392578125,0.26171875,8.064208984375t0.4580078125,8.064208984375q1.47216796875-0.88330078125,3.8603515625-2.077392578125t4.629150390625-2.633544921875t3.843994140625-3.17333984375t1.60302734375-3.76220703125q0-1.60302734375-1.8974609375-2.437255859375t-4.41650390625-1.2431640625t-4.923583984375-0.507080078125t-3.418701171875-0.29443359375z M183.17687011719,87.9111328125q0-0.94873046875,0.081787109375-1.99560546875t0.147216796875-1.962890625l0.1962890625-4.9072265625q0.3271484375-5.888671875,0.801513671875-11.5810546875t0.801513671875-11.515625q0.1962890625-3.2060546875,0.29443359375-6.297607421875t0.29443359375-6.297607421875q-0.130859375-0.26171875-0.130859375-0.35986328125q0-0.4580078125,0.343505859375-0.7197265625t0.801513671875-0.441650390625t0.965087890625-0.245361328125t0.768798828125-0.0654296875l0.75244140625,0q1.01416015625,0.130859375,1.47216796875,0.637939453125t0.5888671875,1.21044921875t0.0654296875,1.5048828125t-0.0654296875,1.488525390625q0,4.74365234375-0.22900390625,9.667236328125t-0.5234375,9.8798828125t-0.539794921875,9.91259765625t-0.245361328125,9.798095703125l0,2.2900390625q0,1.53759765625-0.866943359375,2.0283203125t-2.404541015625,0.49072265625q-1.34130859375,0-2.35546875-0.5888671875t-1.01416015625-1.93017578125z M197.527890625,76.9189453125q0-1.86474609375,0.474365234375-3.843994140625t1.5048828125-3.56591796875t2.600830078125-2.58447265625t3.794921875-0.997802734375q1.66845703125,0,3.516845703125,0.572509765625t3.385986328125,1.6357421875t2.502685546875,2.600830078125t0.965087890625,3.43505859375q0,2.2900390625-0.834228515625,4.35107421875t-2.339111328125,3.680419921875t-3.516845703125,2.5517578125t-4.367431640625,0.932373046875q-1.93017578125,0-3.36962890625-0.703369140625t-2.404541015625-1.881103515625t-1.439453125-2.78076171875t-0.474365234375-3.40234375z M202.33697265625,76.853515625q0,0.5888671875,0.179931640625,1.73388671875t0.539794921875,2.240966796875t0.932373046875,1.8974609375t1.390380859375,0.736083984375q1.73388671875-0.1962890625,2.862548828125-1.128662109375t1.83203125-2.273681640625t0.9814453125-2.91162109375t0.278076171875-2.97705078125q0-1.79931640625-0.703369140625-3.009765625t-2.306396484375-1.962890625q0,0.0654296875,0.0654296875,0.0654296875t0.0654296875-0.0654296875l-0.81787109375-0.1962890625q-0.3271484375-0.130859375-0.801513671875-0.29443359375t-0.932373046875-0.7197265625q-1.27587890625,0.4580078125-1.979248046875,1.177734375t-1.063232421875,1.750244140625t-0.441650390625,2.469970703125t-0.081787109375,3.4677734375z M222.31494628906,75.15234375q0-1.79931640625,0.343505859375-3.843994140625t1.177734375-3.745849609375t2.306396484375-2.8134765625t3.76220703125-1.1123046875q1.53759765625,0,2.97705078125,0.507080078125t2.71533203125,1.390380859375q0.392578125-0.654296875,1.2431640625-0.801513671875t1.5048828125-0.147216796875q0.26171875,0,0.736083984375,0.03271484375t0.932373046875,0.1962890625t0.801513671875,0.392578125t0.408935546875,0.654296875q0.26171875,2.2900390625,0.35986328125,4.563720703125t0.29443359375,4.531005859375q0.3271484375,4.22021484375,1.01416015625,8.34228515625t0.68701171875,8.34228515625q0,1.99560546875-0.179931640625,4.318359375t-0.94873046875,4.302001953125t-2.240966796875,3.287841796875t-4.08935546875,1.30859375q-2.35546875,0-3.614990234375-0.834228515625t-2.273681640625-2.797119140625q0.0654296875-0.654296875,0.834228515625-0.866943359375t1.324951171875-0.212646484375q0.5234375,0,1.063232421875,0.09814453125t0.866943359375,0.3271484375l0.81787109375,0.5234375q1.21044921875-2.486328125,1.47216796875-5.4306640625t0.26171875-5.6923828125q0-2.2900390625-0.22900390625-4.531005859375t-0.4580078125-4.498291015625q-2.2900390625,4.15478515625-6.96826171875,4.15478515625q-2.1591796875,0-3.516845703125-0.916015625t-2.09375-2.32275390625t-1.01416015625-3.17333984375t-0.278076171875-3.533203125z M226.33887207031,75.44677734375q0,0.81787109375,0.0654296875,2.110107421875t0.343505859375,2.535400390625t0.801513671875,2.142822265625t1.47216796875,0.899658203125q1.79931640625,0,2.84619140625-1.40673828125t1.652099609375-3.353271484375t0.965087890625-4.02392578125t0.916015625-3.418701171875q-0.0654296875-0.4580078125-0.0654296875-0.899658203125l0-0.899658203125q-0.75244140625-1.40673828125-2.19189453125-2.437255859375t-2.97705078125-1.390380859375q-0.1962890625-0.03271484375-0.35986328125-0.03271484375q-0.916015625,0-1.5048828125,1.07958984375q-0.75244140625,1.30859375-1.177734375,3.124267578125t-0.605224609375,3.582275390625t-0.179931640625,2.38818359375z"/><path fill="#" d=""/></svg>
